<mxfile host="app.diagrams.net" modified="2022-02-19T08:07:36.702Z" agent="5.0 (Windows NT 6.3; Win64; x64) AppleWebKit/537.36 (KHTML, like Gecko) Chrome/98.0.4758.102 Safari/537.36" etag="seTXIkHHJ9NhnehLl7jJ" version="16.6.1" type="github">
  <diagram name="Page-1" id="12e1b939-464a-85fe-373e-61e167be1490">
    <mxGraphModel dx="2076" dy="1160" grid="1" gridSize="10" guides="1" tooltips="1" connect="1" arrows="1" fold="1" page="1" pageScale="1.5" pageWidth="1169" pageHeight="826" background="none" math="0" shadow="0">
      <root>
        <mxCell id="0" />
        <mxCell id="1" parent="0" />
        <mxCell id="VNs2b5MQoNy6hIIXQ_d6-4" value="" style="rounded=0;whiteSpace=wrap;html=1;dashed=1;" vertex="1" parent="1">
          <mxGeometry x="481" y="1231" width="260" height="130" as="geometry" />
        </mxCell>
        <mxCell id="VNs2b5MQoNy6hIIXQ_d6-1" value="存储策略" style="whiteSpace=wrap;html=1;rounded=1;shadow=0;strokeWidth=8;fontSize=20;align=center;fillColor=#FED217;strokeColor=#FFFFFF;" vertex="1" parent="1">
          <mxGeometry x="300" y="1042" width="160" height="400" as="geometry" />
        </mxCell>
        <mxCell id="VNs2b5MQoNy6hIIXQ_d6-2" value="&lt;font face=&quot;Times New Roman&quot; style=&quot;font-size: 24px&quot;&gt;三副本池&lt;/font&gt;" style="rounded=1;whiteSpace=wrap;html=1;fillColor=#CCFFE6;strokeColor=#6c8ebf;" vertex="1" parent="1">
          <mxGeometry x="476" y="1458" width="270" height="60" as="geometry" />
        </mxCell>
        <mxCell id="VNs2b5MQoNy6hIIXQ_d6-3" value="" style="verticalLabelPosition=bottom;html=1;verticalAlign=top;align=center;strokeColor=none;fillColor=#00BEF2;shape=mxgraph.azure.vhd;pointerEvents=1;" vertex="1" parent="1">
          <mxGeometry x="502" y="1240" width="40" height="50" as="geometry" />
        </mxCell>
        <mxCell id="VNs2b5MQoNy6hIIXQ_d6-5" value="" style="verticalLabelPosition=bottom;html=1;verticalAlign=top;align=center;strokeColor=none;fillColor=#00BEF2;shape=mxgraph.azure.vhd;pointerEvents=1;" vertex="1" parent="1">
          <mxGeometry x="558.5" y="1240" width="40" height="50" as="geometry" />
        </mxCell>
        <mxCell id="VNs2b5MQoNy6hIIXQ_d6-6" value="" style="verticalLabelPosition=bottom;html=1;verticalAlign=top;align=center;strokeColor=none;fillColor=#00BEF2;shape=mxgraph.azure.vhd;pointerEvents=1;" vertex="1" parent="1">
          <mxGeometry x="622" y="1240" width="40" height="50" as="geometry" />
        </mxCell>
        <mxCell id="VNs2b5MQoNy6hIIXQ_d6-7" value="" style="verticalLabelPosition=bottom;html=1;verticalAlign=top;align=center;strokeColor=none;fillColor=#00BEF2;shape=mxgraph.azure.vhd;pointerEvents=1;" vertex="1" parent="1">
          <mxGeometry x="682" y="1240" width="40" height="50" as="geometry" />
        </mxCell>
        <mxCell id="VNs2b5MQoNy6hIIXQ_d6-13" value="" style="sketch=0;pointerEvents=1;shadow=0;dashed=0;html=1;strokeColor=none;fillColor=#434445;aspect=fixed;labelPosition=center;verticalLabelPosition=bottom;verticalAlign=top;align=center;outlineConnect=0;shape=mxgraph.vvd.ssd;" vertex="1" parent="1">
          <mxGeometry x="502" y="1311" width="50" height="35.5" as="geometry" />
        </mxCell>
        <mxCell id="VNs2b5MQoNy6hIIXQ_d6-14" value="" style="sketch=0;pointerEvents=1;shadow=0;dashed=0;html=1;strokeColor=none;fillColor=#434445;aspect=fixed;labelPosition=center;verticalLabelPosition=bottom;verticalAlign=top;align=center;outlineConnect=0;shape=mxgraph.vvd.ssd;" vertex="1" parent="1">
          <mxGeometry x="586" y="1311" width="50" height="35.5" as="geometry" />
        </mxCell>
        <mxCell id="VNs2b5MQoNy6hIIXQ_d6-15" value="" style="sketch=0;pointerEvents=1;shadow=0;dashed=0;html=1;strokeColor=none;fillColor=#434445;aspect=fixed;labelPosition=center;verticalLabelPosition=bottom;verticalAlign=top;align=center;outlineConnect=0;shape=mxgraph.vvd.ssd;" vertex="1" parent="1">
          <mxGeometry x="672" y="1311" width="50" height="35.5" as="geometry" />
        </mxCell>
        <mxCell id="VNs2b5MQoNy6hIIXQ_d6-18" value="&lt;font color=&quot;#ffffff&quot;&gt;元数据和索引数据池&lt;/font&gt;" style="whiteSpace=wrap;html=1;rounded=1;shadow=0;strokeWidth=8;fontSize=20;align=center;fillColor=#00CC66;strokeColor=#FFFFFF;rotation=0;direction=west;" vertex="1" parent="1">
          <mxGeometry x="473" y="1367" width="280" height="75" as="geometry" />
        </mxCell>
        <mxCell id="VNs2b5MQoNy6hIIXQ_d6-19" value="配置" style="whiteSpace=wrap;html=1;rounded=1;shadow=0;strokeWidth=8;fontSize=20;align=center;fillColor=#FED217;strokeColor=#FFFFFF;" vertex="1" parent="1">
          <mxGeometry x="300" y="1450" width="160" height="70" as="geometry" />
        </mxCell>
        <mxCell id="VNs2b5MQoNy6hIIXQ_d6-20" value="&lt;font face=&quot;Times New Roman&quot;&gt;&lt;span style=&quot;font-size: 24px&quot;&gt;EC纠删码池&lt;/span&gt;&lt;/font&gt;" style="rounded=1;whiteSpace=wrap;html=1;fillColor=#E5CCFF;strokeColor=#d6b656;" vertex="1" parent="1">
          <mxGeometry x="757" y="1459" width="270" height="60" as="geometry" />
        </mxCell>
        <mxCell id="VNs2b5MQoNy6hIIXQ_d6-29" value="" style="rounded=0;whiteSpace=wrap;html=1;dashed=1;" vertex="1" parent="1">
          <mxGeometry x="762" y="1230" width="260" height="130" as="geometry" />
        </mxCell>
        <mxCell id="VNs2b5MQoNy6hIIXQ_d6-30" value="" style="verticalLabelPosition=bottom;html=1;verticalAlign=top;align=center;strokeColor=none;fillColor=#00BEF2;shape=mxgraph.azure.vhd;pointerEvents=1;" vertex="1" parent="1">
          <mxGeometry x="783" y="1239" width="40" height="50" as="geometry" />
        </mxCell>
        <mxCell id="VNs2b5MQoNy6hIIXQ_d6-31" value="" style="verticalLabelPosition=bottom;html=1;verticalAlign=top;align=center;strokeColor=none;fillColor=#00BEF2;shape=mxgraph.azure.vhd;pointerEvents=1;" vertex="1" parent="1">
          <mxGeometry x="839.5" y="1239" width="40" height="50" as="geometry" />
        </mxCell>
        <mxCell id="VNs2b5MQoNy6hIIXQ_d6-32" value="" style="verticalLabelPosition=bottom;html=1;verticalAlign=top;align=center;strokeColor=none;fillColor=#00BEF2;shape=mxgraph.azure.vhd;pointerEvents=1;" vertex="1" parent="1">
          <mxGeometry x="903" y="1239" width="40" height="50" as="geometry" />
        </mxCell>
        <mxCell id="VNs2b5MQoNy6hIIXQ_d6-33" value="" style="verticalLabelPosition=bottom;html=1;verticalAlign=top;align=center;strokeColor=none;fillColor=#00BEF2;shape=mxgraph.azure.vhd;pointerEvents=1;" vertex="1" parent="1">
          <mxGeometry x="963" y="1239" width="40" height="50" as="geometry" />
        </mxCell>
        <mxCell id="VNs2b5MQoNy6hIIXQ_d6-37" value="" style="verticalLabelPosition=bottom;html=1;verticalAlign=top;align=center;strokeColor=none;fillColor=#00BEF2;shape=mxgraph.azure.vhd;pointerEvents=1;" vertex="1" parent="1">
          <mxGeometry x="783" y="1303.75" width="40" height="50" as="geometry" />
        </mxCell>
        <mxCell id="VNs2b5MQoNy6hIIXQ_d6-38" value="" style="verticalLabelPosition=bottom;html=1;verticalAlign=top;align=center;strokeColor=none;fillColor=#00BEF2;shape=mxgraph.azure.vhd;pointerEvents=1;" vertex="1" parent="1">
          <mxGeometry x="839.5" y="1303.75" width="40" height="50" as="geometry" />
        </mxCell>
        <mxCell id="VNs2b5MQoNy6hIIXQ_d6-39" value="" style="verticalLabelPosition=bottom;html=1;verticalAlign=top;align=center;strokeColor=none;fillColor=#00BEF2;shape=mxgraph.azure.vhd;pointerEvents=1;" vertex="1" parent="1">
          <mxGeometry x="903" y="1303.75" width="40" height="50" as="geometry" />
        </mxCell>
        <mxCell id="VNs2b5MQoNy6hIIXQ_d6-40" value="" style="verticalLabelPosition=bottom;html=1;verticalAlign=top;align=center;strokeColor=none;fillColor=#00BEF2;shape=mxgraph.azure.vhd;pointerEvents=1;" vertex="1" parent="1">
          <mxGeometry x="963" y="1303.75" width="40" height="50" as="geometry" />
        </mxCell>
        <mxCell id="VNs2b5MQoNy6hIIXQ_d6-41" value="&lt;font color=&quot;#ffffff&quot;&gt;视频数据池&lt;/font&gt;" style="whiteSpace=wrap;html=1;rounded=1;shadow=0;strokeWidth=8;fontSize=20;align=center;fillColor=#9933FF;strokeColor=#FFFFFF;rotation=0;direction=west;" vertex="1" parent="1">
          <mxGeometry x="753" y="1369" width="280" height="75" as="geometry" />
        </mxCell>
        <mxCell id="VNs2b5MQoNy6hIIXQ_d6-42" value="&lt;font color=&quot;#000000&quot;&gt;元数据 |&amp;nbsp;索引文件数据&lt;/font&gt;" style="rounded=0;whiteSpace=wrap;html=1;dashed=1;fontFamily=Times New Roman;fontSize=24;fontColor=#FFFFFF;fillColor=#E6E6E6;" vertex="1" parent="1">
          <mxGeometry x="476" y="1042" width="250" height="60" as="geometry" />
        </mxCell>
        <mxCell id="VNs2b5MQoNy6hIIXQ_d6-43" value="&lt;font color=&quot;#000000&quot;&gt;视频图像数据(&amp;gt;1MB)&lt;/font&gt;" style="rounded=0;whiteSpace=wrap;html=1;dashed=1;fontFamily=Times New Roman;fontSize=24;fontColor=#FFFFFF;fillColor=#E6E6E6;" vertex="1" parent="1">
          <mxGeometry x="761" y="1042" width="268" height="60" as="geometry" />
        </mxCell>
      </root>
    </mxGraphModel>
  </diagram>
</mxfile>
